<?xml version="1.0" encoding="utf-8"?>
<!-- Generator: Adobe Illustrator 20.1.0, SVG Export Plug-In . SVG Version: 6.00 Build 0)  -->
<svg version="1.1" id="Layer_1" xmlns="http://www.w3.org/2000/svg" xmlns:xlink="http://www.w3.org/1999/xlink" x="0px" y="0px"
	 viewBox="0 0 233.1 80.1" style="enable-background:new 0 0 233.1 80.1;" xml:space="preserve">
<g>
	<path d="M0.4,14.1h6.5c0.2,0,0.4,0.2,0.4,0.4v40.2c0,0.2-0.1,0.4-0.4,0.4H0.4C0.1,55.1,0,55,0,54.7V14.5C0,14.3,0.2,14.1,0.4,14.1z
		"/>
	<path d="M48.7,14.2h6.5c0.2,0.1,0.4,0.2,0.4,0.4v65.1c0,0.2-0.1,0.4-0.4,0.4h-7.9c-1-0.9-9.3-12.3-25-34
		c-5.9-7.7-8.8-11.9-8.8-12.6c-0.1-2-0.2-3.7-0.2-5.2v-5.4h0.2c23,31.1,34.5,46.7,34.5,47h0.4V14.6C48.4,14.3,48.5,14.2,48.7,14.2z"
		/>
	<path d="M91.7,14.6v6.3c0,0.2-0.1,0.4-0.3,0.4H68.7v58.5c0,0.2-0.1,0.4-0.4,0.4h-6.5c-0.2,0-0.4-0.1-0.4-0.4V14.6
		c0-0.2,0.1-0.3,0.4-0.4h29.5C91.6,14.2,91.7,14.4,91.7,14.6z"/>
	<path d="M111.9,14.1c12.1,0,19.8,4.1,23.2,12.2c1,3,1.5,5.8,1.5,8.4c0,9.1-4.4,15.2-13.1,18.2c0,0.1-0.8,0.6-2.5,1.3l15.3,25.5v0.4
		h-8.1c-0.5-0.3-4.6-7.5-12.4-21.4l-6.1-10.6l0.4-0.2h0.7c12.6,0,18.8-4.4,18.8-13.1c0-5.5-2.7-9.6-8.1-12.4
		c-3.5-1-7.5-1.5-12.2-1.5c-5.7,0.1-9.4,0.2-11.3,0.2l-0.2-0.4v-5.9c0-0.2,0.2-0.4,0.4-0.4C98.7,14.4,103.3,14.3,111.9,14.1z"/>
	<path d="M169.7,14.1c10.5,0,19,4.2,25.3,12.5c1.1,1.6,1.8,2.9,1.9,3.7c-3.7,1.6-5.7,2.4-6,2.4h-0.2c-4.1-7.8-10.8-11.8-20-11.8
		c-11.8,0-19.7,5.6-23.7,16.9c-0.8,3.1-1.2,5.8-1.2,8.1v2.1c0,7.7,2.6,14.2,7.9,19.5c3.7,2.8,8,4.7,12.8,5.7l0.2,0.3v6.2
		c0,0.2-0.1,0.4-0.4,0.4c-5.2-0.6-9.4-1.9-12.6-3.9c-5.3-3.6-8.8-7.4-10.6-11.3c-3-5.5-4.6-11.4-4.6-17.7c0-11,4.2-20.1,12.5-27.1
		C156.7,16.1,162.9,14.1,169.7,14.1z"/>
	<path d="M233.1,14.6v6.3c0,0.2-0.1,0.4-0.3,0.4h-22.7v58.5c0,0.2-0.1,0.4-0.4,0.4h-6.5c-0.2,0-0.4-0.1-0.4-0.4V14.6
		c0-0.2,0.1-0.3,0.4-0.4h29.5C232.9,14.2,233,14.4,233.1,14.6z"/>
</g>
<rect y="2.4" width="7.3" height="7.3"/>
</svg>
